<?xml version="1.0" encoding="UTF-8"?>
<svg width="500px" height="500px" viewBox="0 0 500 500" version="1.1" xmlns="http://www.w3.org/2000/svg" xmlns:xlink="http://www.w3.org/1999/xlink">
    <g id="Personal-Trainer-BIG" stroke="none" stroke-width="1" fill="none" fill-rule="evenodd">
        <g id="Group" transform="translate(88.000000, 0.000000)" fill="#25a9e0" fill-rule="nonzero">
            <path d="M162.503106,0 C114.342484,0 75.4658385,40.2179745 75.4658385,90.0402414 C75.4658385,139.862508 114.342484,180.080483 162.503106,180.080483 C210.663727,180.080483 249.540373,139.862508 249.540373,90.0402414 C249.540373,40.2179745 210.663727,0 162.503106,0 Z M162.503106,150.067069 C130.589441,150.067069 104.478261,123.054997 104.478261,90.0402414 C104.478261,57.0254863 130.589441,30.0134138 162.503106,30.0134138 C194.41677,30.0134138 220.52795,57.0254863 220.52795,90.0402414 C220.52795,123.054997 194.41677,150.067069 162.503106,150.067069 Z" id="Oval-2"></path>
            <path d="M232.121112,200.201207 L91.7081939,200.201207 C85.298039,200.201207 79.1931295,200.832363 72.7829745,202.094673 C23.3332076,213.139892 -8.41232172,263.316743 1.96602442,314.440326 L39.8164633,500 L284.012843,500 L321.863282,314.440326 C323.084264,308.128773 324,301.501641 324,294.87451 C323.694755,242.488616 282.791861,200.201207 232.121112,200.201207 Z M290.954753,306.286009 L258.217622,467.022133 L172.856315,467.022133 L172.856315,435.443327 L206.51131,435.443327 C211.712537,435.443327 215.689946,431.338082 215.689946,425.969685 L215.689946,413.338162 C215.689946,407.969765 211.712537,403.86452 206.51131,403.86452 L172.856315,403.86452 L172.856315,372.285714 L224.868581,372.285714 C230.069807,372.285714 234.047216,368.180469 234.047216,362.812072 L234.047216,350.18055 C234.047216,344.812153 230.069807,340.706908 224.868581,340.706908 L172.856315,340.706908 L172.856315,318.601744 C172.856315,313.233347 168.878906,309.128102 163.67768,309.128102 L151.4395,309.128102 C146.238273,309.128102 142.260865,313.233347 142.260865,318.601744 L142.260865,340.706908 L90.2485991,340.706908 C85.0473725,340.706908 81.069964,344.812153 81.069964,350.18055 L81.069964,362.812072 C81.069964,368.180469 85.0473725,372.285714 90.2485991,372.285714 L142.260865,372.285714 L142.260865,403.86452 L108.605869,403.86452 C103.404643,403.86452 99.4272342,407.969765 99.4272342,413.338162 L99.4272342,425.969685 C99.4272342,431.338082 103.404643,435.443327 108.605869,435.443327 L142.260865,435.443327 L142.260865,467.022133 L63.0186483,467.022133 L30.2815164,306.286009 C23.2445628,272.180899 44.3554235,238.707364 77.3985099,231.444239 C81.681873,230.496875 85.6592815,230.181087 89.9426446,230.181087 L230.987671,230.181087 C264.642666,230.181087 292.178571,258.602012 292.178571,293.338699 C292.178571,297.759732 291.872617,302.180765 290.954753,306.286009 Z" id="Combined-Shape"></path>
        </g>
    </g>
</svg>